<svg class="logo" xmlns="http://www.w3.org/2000/svg" viewBox="0 0 388.03 388.01"><title>logo-social-network_1</title><g id="Layer_2" data-name="Layer 2"><g id="Capa_1" data-name="Capa 1"><path d="M314.15,109.58A150.55,150.55,0,0,0,291,98.92C270.1,41.28,214.78,0,150,0,67.29,0,0,67.29,0,150c0,64.78,41.28,120.1,98.92,141a150,150,0,0,0,10.66,23.1,15,15,0,0,0,26.07-14.83c4.73.45,9.51.69,14.35.69,82.71,0,150-67.33,150-150,0-4.84-.24-9.62-.69-14.35a15,15,0,0,0,14.84-26.07ZM90.7,254.29A120,120,0,1,1,254.29,90.7C160.61,81.82,81.8,160.38,90.7,254.29ZM150,270A120.44,120.44,0,0,1,123,267a120.56,120.56,0,0,1-2.31-40.15l42.47,42.47A119.85,119.85,0,0,1,150,270Zm46.84-9.52-67.32-67.32a120.46,120.46,0,0,1,15.72-26.7l78.3,78.3A120.46,120.46,0,0,1,196.84,260.48Zm47.92-36.94-78.3-78.3a120.46,120.46,0,0,1,26.7-15.72l67.32,67.32A120.46,120.46,0,0,1,244.76,223.54Zm24.51-60.34L226.8,120.73A120.56,120.56,0,0,1,267,123a120.36,120.36,0,0,1,2.32,40.16Z"/><path d="M211.94,356.71a118.88,118.88,0,0,1-44-20.77,15,15,0,1,0-18,24,148.57,148.57,0,0,0,55.09,26,15,15,0,1,0,7-29.17Z"/><path d="M385.86,204.86a148.57,148.57,0,0,0-26-55.07,15,15,0,0,0-24,18.05,118.9,118.9,0,0,1,20.8,44,15,15,0,1,0,29.17-7Z"/><path d="M375.58,248.35a15,15,0,0,0-17.34,12.22,118.67,118.67,0,0,1-17.89,45.26,15,15,0,1,0,25.07,16.48,148.52,148.52,0,0,0,22.39-56.63A15,15,0,0,0,375.58,248.35Z"/><path d="M326.68,344.58a15,15,0,0,0-20.78-4.28,118.59,118.59,0,0,1-45.24,17.93,15,15,0,1,0,5.13,29.56,148.43,148.43,0,0,0,56.61-22.43A15,15,0,0,0,326.68,344.58Z"/></g></g></svg>